<svg xmlns="http://www.w3.org/2000/svg" xmlns:xlink="http://www.w3.org/1999/xlink" width="172" height="31"><defs><path id="a" d="M0 .535h172v30.458H0z"/></defs><clipPath id="b"><use xlink:href="#a" overflow="visible"/></clipPath><g clip-path="url(#b)"><path fill-rule="evenodd" clip-rule="evenodd" fill="#181D30" d="M53.771 8.614c-1.476 0-2.711.464-3.675 1.146l-.061-.031v-.775h-4.488v22.039h4.578v-7.025l.061-.031c.692.34 1.657.588 2.862.588 4.337 0 7.742-3.188 7.742-8.079 0-4.736-3.224-7.832-7.019-7.832zm-1.295 12.103a5.074 5.074 0 01-2.35-.588v-6.748a4.181 4.181 0 012.47-.835c2.259 0 3.585 1.856 3.585 4.147 0 2.259-1.326 4.024-3.705 4.024zM24.581 1.434c-1.446 0-2.651 1.207-2.651 2.692 0 1.486 1.205 2.693 2.651 2.693s2.651-1.207 2.651-2.693c-.001-1.485-1.206-2.692-2.651-2.692zm38.822 22.75h4.579V.535h-4.579v23.649zM15.272 4.033c-2.259-1.609-5.271-2.26-9.157-2.26H0v22.41h5.904c4.579 0 7.711-.897 9.941-2.754 2.32-1.95 3.615-4.953 3.615-8.482 0-3.838-1.506-6.995-4.188-8.914zm-2.71 14.084c-1.356 1.206-3.344 1.765-6.447 1.765H4.79V6.076h1.295c2.44 0 4.519.247 6.055 1.361 1.627 1.177 2.53 3.158 2.53 5.51 0 2.229-.814 4.025-2.108 5.17zm9.73 6.067h4.579V8.954h-4.579v15.23zm15.905-9.287c-2.199-.557-3.795-.464-3.795-1.578 0-.712.723-1.084 1.928-1.084 1.325 0 3.615.495 5.573 1.642V9.822c-1.687-.836-3.886-1.208-5.663-1.208-3.675 0-6.447 1.826-6.477 5.045 0 2.508 1.657 3.715 4.458 4.427 2.229.588 3.886.464 3.886 1.641 0 .836-.753 1.176-2.019 1.176-1.416 0-3.795-.526-5.844-1.764v4.117c1.777.897 4.066 1.269 5.844 1.269 3.796 0 6.627-1.826 6.658-5.169 0-2.632-1.718-3.747-4.549-4.459zM151.58 4.188l-4.578.805v3.962h-2.41v3.9h2.41v5.603c0 2.415.512 3.684 1.295 4.551.934 1.021 2.35 1.517 3.855 1.517 1.296 0 2.651-.371 3.344-.836v-3.745c-.602.31-1.445.619-2.198.619-1.386 0-1.718-1.115-1.718-2.601v-5.107h3.916v-3.9h-3.916V4.188zM172 16.198c0-5.107-3.434-7.584-7.08-7.584-4.097 0-7.771 3.157-7.771 8.017 0 4.767 3.524 7.894 8.404 7.894 1.959 0 4.188-.465 5.634-1.393V19.2c-1.566 1.083-3.374 1.672-5.031 1.672-2.108 0-3.796-.96-4.308-3.064h10.062c.059-.403.09-1.084.09-1.61zm-10.182-1.362c.391-1.733 1.627-2.631 3.043-2.631 1.475 0 2.65.99 2.921 2.631h-5.964zm-26.961-6.222c-4.729 0-8.254 3.467-8.254 7.955s3.524 7.955 8.254 7.955c4.729 0 8.254-3.467 8.254-7.955s-3.525-7.955-8.254-7.955zm0 11.856c-2.079 0-3.676-1.733-3.676-3.9s1.597-3.9 3.676-3.9c2.078 0 3.675 1.733 3.675 3.9s-1.596 3.9-3.675 3.9zm-50.94-1.023v-5.169c0-1.919-.542-3.28-1.657-4.21-1.175-.99-2.953-1.454-4.94-1.454-2.169 0-3.977.557-5.182 1.176v4.056c1.175-.65 2.682-1.207 4.338-1.207 1.084 0 1.867.247 2.289.649.332.31.572.867.572 1.609v.589a11.533 11.533 0 00-2.561-.279c-1.537 0-3.012.279-4.157 1.084-1.054.743-1.807 2.012-1.807 3.684 0 1.578.662 2.786 1.748 3.559.963.682 2.168.991 3.433.991 1.688 0 3.164-.557 4.127-1.269h.061c.813.866 1.988 1.207 3.193 1.207.874 0 1.687-.187 2.199-.465V20.47a1.699 1.699 0 01-.753.185c-.631-.001-.903-.496-.903-1.208zm-4.578.991c-.542.34-1.295.619-2.079.619-1.055 0-1.898-.526-1.898-1.517 0-1.176 1.175-1.548 2.35-1.548.481 0 1.145.062 1.626.217v2.229zm40.184-10.337c0 2.166.029 4.333.06 6.469l-.06.031a342.362 342.362 0 00-4.098-5.788l-6.537-9.039h-4.518v22.41h4.608v-8.326c0-2.167-.03-4.334-.061-6.47l.061-.03a336.668 336.668 0 004.097 5.788l6.537 9.038h4.519V1.773h-4.608v8.328zm-23.918 2.538a241.957 241.957 0 00-2.018 4.921h-.061a281.587 281.587 0 00-1.898-4.829l-1.536-3.776h-4.819l6.023 13.559-3.885 8.48h4.669l9.64-22.039h-4.549l-1.566 3.684z"/></g></svg>